<svg width="512" height="512" viewBox="0 0 512 512" fill="none" xmlns="http://www.w3.org/2000/svg">
<rect width="512" height="512" rx="150" fill="#9250E9"/>
<path d="M84 170.005C84 122.509 122.504 84.0061 170 84.0061V309.895C170 327.627 184.375 342.002 202.107 342.002H342.001C342.001 389.497 303.498 428 256.001 428H198.667C135.338 428 84 376.663 84 313.335L84 170.005Z" fill="white"/>
<path d="M428 341.995C428 389.491 389.496 427.994 342 427.994L341.999 202.105C341.999 184.373 327.625 169.998 309.893 169.998L169.998 169.998C169.998 122.503 208.502 84 255.999 84L313.333 84C376.662 84 428 135.337 428 198.665L428 341.995Z" fill="white"/>
<path d="M301.864 255.997C301.864 281.328 281.329 301.863 255.997 301.863L210.13 301.863V255.997C210.13 230.666 230.665 210.131 255.997 210.131H301.864L301.864 255.997Z" fill="white"/>
</svg>
